<svg xmlns="http://www.w3.org/2000/svg" viewBox="0 0 64 64" role="img" aria-label="Whole owl logo">
  <rect width="64" height="64" rx="12" fill="#efe8dc"/>
  <path d="M20 13 14 22l9 2z" fill="#6c4025"/>
  <path d="M44 13 50 22l-9 2z" fill="#6c4025"/>
  <ellipse cx="32" cy="34" rx="20" ry="21" fill="#6c4025"/>
  <ellipse cx="32" cy="38" rx="12.5" ry="13.5" fill="#d8b697"/>
  <path d="M18 32c-3 3-4 7-3 11 2-1 4-2 6-4" fill="#5a341f"/>
  <path d="M46 32c3 3 4 7 3 11-2-1-4-2-6-4" fill="#5a341f"/>
  <circle cx="25.5" cy="29.5" r="7.2" fill="#fff"/>
  <circle cx="38.5" cy="29.5" r="7.2" fill="#fff"/>
  <circle cx="25.5" cy="29.5" r="3.8" fill="#181511"/>
  <circle cx="38.5" cy="29.5" r="3.8" fill="#181511"/>
  <circle cx="24.4" cy="28.4" r="1" fill="#fff"/>
  <circle cx="37.4" cy="28.4" r="1" fill="#fff"/>
  <path d="M32 33.2 27.8 39h8.4z" fill="#dc8f2e"/>
  <path d="M30 51h-5l4-3z" fill="#b77728"/>
  <path d="M34 51h5l-4-3z" fill="#b77728"/>
  <path d="M22 44c6 4 14 4 20 0" fill="none" stroke="#caa47f" stroke-width="2" stroke-linecap="round"/>
</svg>
